<?xml version="1.0" standalone="no"?>
<!DOCTYPE svg PUBLIC "-//W3C//DTD SVG 20010904//EN"
 "http://www.w3.org/TR/2001/REC-SVG-20010904/DTD/svg10.dtd">
<svg version="1.0" xmlns="http://www.w3.org/2000/svg"
 width="400.000000pt" height="400.000000pt" viewBox="0 0 400.000000 400.000000"
 preserveAspectRatio="xMidYMid meet">
<metadata>
Created by potrace 1.14, written by Peter Selinger 2001-2017
</metadata>
<g transform="translate(0.000000,400.000000) scale(0.100000,-0.100000)"
fill="#000000" stroke="none">
<path d="M750 3993 c-67 -11 -185 -46 -237 -69 -202 -92 -369 -266 -449 -469
-66 -164 -63 -94 -61 -1475 l2 -1255 23 -80 c95 -329 351 -565 680 -629 66
-13 250 -15 1327 -13 l1250 2 75 24 c41 13 91 31 110 41 19 10 38 17 41 16 4
0 43 23 88 52 90 59 195 158 238 224 15 24 30 45 33 48 30 29 86 171 110 280
19 81 19 138 19 1315 0 1318 2 1261 -49 1417 -77 237 -294 449 -545 534 -5 2
-48 13 -95 24 -82 19 -124 19 -1310 18 -674 0 -1236 -3 -1250 -5z"/>
</g>
</svg>
